<svg width="1440" height="1130" viewBox="0 0 1440 1130" fill="none" xmlns="http://www.w3.org/2000/svg">
<path fill-rule="evenodd" clip-rule="evenodd" d="M0 497.713V1.28713C8.38425 0.436003 16.8912 0 25.5 0C163.295 0 275 111.705 275 249.5C275 387.295 163.295 499 25.5 499C16.8912 499 8.38425 498.564 0 497.713ZM0 1085.24V756.912L18.4066 767.539C19.9698 767.428 21.5884 767.407 23.26 767.474C30.3226 767.759 35.7307 766.25 39.7518 763.227C43.773 760.204 46.7255 755.429 48.4141 748.565C50.3219 740.811 53.8273 734.774 59.1253 730.792C64.4232 726.809 71.1957 725.119 79.175 725.441C86.2376 725.726 91.6456 724.217 95.6668 721.194C99.688 718.172 102.64 713.396 104.329 706.532C106.237 698.778 109.742 692.742 115.04 688.759C120.338 684.776 127.111 683.086 135.09 683.408C142.152 683.694 147.561 682.184 151.582 679.162C155.603 676.139 158.555 671.363 160.244 664.499C162.152 656.745 165.657 650.709 170.955 646.726C176.253 642.743 183.026 641.053 191.005 641.376C198.067 641.661 203.476 640.152 207.497 637.129C211.518 634.106 214.47 629.33 216.159 622.467C218.067 614.712 221.572 608.676 226.87 604.693C232.168 600.711 238.94 599.021 246.92 599.343C253.982 599.628 259.39 598.119 263.412 595.096C267.433 592.073 270.385 587.297 272.074 580.434C273.982 572.679 277.487 566.643 282.785 562.66C288.083 558.678 294.855 556.988 302.835 557.31C309.897 557.595 315.305 556.086 319.327 553.063C323.348 550.04 326.3 545.265 327.989 538.401C329.897 530.646 333.402 524.61 338.7 520.628C343.998 516.645 350.77 514.955 358.75 515.277C365.812 515.562 371.22 514.053 375.241 511.03C379.263 508.007 382.215 503.232 383.904 496.368C385.812 488.613 389.317 482.577 394.615 478.595C399.913 474.612 406.685 472.922 414.665 473.244C421.727 473.529 427.135 472.02 431.156 468.997C435.178 465.975 438.13 461.199 439.819 454.335C441.727 446.581 445.232 440.544 450.53 436.562C455.828 432.579 462.6 430.889 470.58 431.211L470.455 436.883C463.393 436.598 457.985 438.107 453.964 441.13C449.942 444.152 446.99 448.928 445.301 455.792C443.393 463.546 439.888 469.582 434.59 473.565C429.292 477.548 422.52 479.238 414.54 478.916C407.478 478.63 402.07 480.139 398.049 483.162C394.027 486.185 391.075 490.961 389.386 497.825C387.478 505.579 383.973 511.615 378.675 515.598C373.377 519.581 366.605 521.271 358.625 520.948C351.563 520.663 346.155 522.172 342.134 525.195C338.112 528.218 335.16 532.994 333.471 539.857C331.563 547.612 328.058 553.648 322.76 557.631C317.462 561.613 310.69 563.303 302.71 562.981C295.648 562.696 290.24 564.205 286.219 567.228C282.197 570.251 279.245 575.027 277.556 581.89C275.649 589.645 272.143 595.681 266.845 599.664C261.547 603.646 254.775 605.336 246.796 605.014C239.733 604.729 234.325 606.238 230.304 609.261C226.283 612.284 223.33 617.06 221.641 623.923C219.734 631.678 216.228 637.714 210.93 641.696C205.632 645.679 198.86 647.369 190.881 647.047C183.818 646.762 178.41 648.271 174.389 651.294C170.368 654.317 167.415 659.092 165.727 665.956C163.819 673.711 160.313 679.747 155.015 683.729C149.717 687.712 142.945 689.402 134.966 689.08C127.903 688.795 122.495 690.304 118.474 693.327C114.453 696.349 111.5 701.125 109.812 707.989C107.904 715.743 104.398 721.779 99.1004 725.762C93.8025 729.745 87.03 731.435 79.0507 731.113C71.9881 730.828 66.5801 732.337 62.5589 735.359C58.5377 738.382 55.5853 743.158 53.8966 750.022C51.9888 757.776 48.4834 763.812 43.1855 767.795C39.0005 770.941 33.8956 772.656 28.0026 773.079L54.2331 788.224C55.2876 787.698 56.2681 787.092 57.1776 786.408C61.1988 783.385 64.1512 778.609 65.8399 771.746C67.7477 763.991 71.2531 757.955 76.5511 753.973C81.849 749.99 88.6215 748.3 96.6008 748.622C103.663 748.907 109.071 747.398 113.093 744.375C117.114 741.352 120.066 736.577 121.755 729.713C123.663 721.958 127.168 715.922 132.466 711.94C137.764 707.957 144.536 706.267 152.516 706.589C159.578 706.874 164.986 705.365 169.008 702.342C173.029 699.32 175.981 694.544 177.67 687.68C179.578 679.926 183.083 673.889 188.381 669.907C193.679 665.924 200.451 664.234 208.431 664.556C215.493 664.841 220.901 663.332 224.922 660.31C228.944 657.287 231.896 652.511 233.585 645.647C235.493 637.893 238.998 631.857 244.296 627.874C249.594 623.891 256.366 622.201 264.346 622.523C271.408 622.809 276.816 621.299 280.837 618.277C284.859 615.254 287.811 610.478 289.5 603.614C291.407 595.86 294.913 589.824 300.211 585.841C305.509 581.859 312.281 580.169 320.261 580.491C327.323 580.776 332.731 579.267 336.752 576.244C340.773 573.221 343.726 568.445 345.415 561.582C347.322 553.827 350.828 547.791 356.126 543.808C361.424 539.826 368.196 538.136 376.175 538.458C383.238 538.743 388.646 537.234 392.667 534.211C396.688 531.188 399.641 526.412 401.33 519.549C403.237 511.794 406.743 505.758 412.041 501.775C417.339 497.793 424.111 496.103 432.09 496.425C439.153 496.71 444.561 495.201 448.582 492.178C452.603 489.155 455.556 484.38 457.245 477.516C459.152 469.761 462.658 463.725 467.956 459.743C473.254 455.76 480.026 454.07 488.005 454.392L487.881 460.063C480.818 459.778 475.41 461.287 471.389 464.31C467.368 467.333 464.416 472.109 462.727 478.972C460.819 486.727 457.314 492.763 452.016 496.746C446.718 500.728 439.945 502.418 431.966 502.096C424.904 501.811 419.495 503.32 415.474 506.343C411.453 509.366 408.501 514.142 406.812 521.005C404.904 528.76 401.399 534.796 396.101 538.779C390.803 542.761 384.03 544.451 376.051 544.129C368.989 543.844 363.581 545.353 359.559 548.376C355.538 551.399 352.586 556.174 350.897 563.038C348.989 570.793 345.484 576.829 340.186 580.811C334.888 584.794 328.116 586.484 320.136 586.162C313.074 585.877 307.666 587.386 303.644 590.409C299.623 593.432 296.671 598.207 294.982 605.071C293.074 612.826 289.569 618.862 284.271 622.844C278.973 626.827 272.201 628.517 264.221 628.195C257.159 627.91 251.751 629.419 247.729 632.442C243.708 635.464 240.756 640.24 239.067 647.104C237.159 654.858 233.654 660.895 228.356 664.877C223.058 668.86 216.286 670.55 208.306 670.228C201.244 669.943 195.836 671.452 191.815 674.474C187.793 677.497 184.841 682.273 183.152 689.137C181.244 696.891 177.739 702.927 172.441 706.91C167.143 710.893 160.371 712.583 152.391 712.26C145.329 711.975 139.921 713.484 135.9 716.507C131.878 719.53 128.926 724.306 127.237 731.17C125.33 738.924 121.824 744.96 116.526 748.943C111.228 752.925 104.456 754.615 96.4765 754.293C89.4139 754.008 84.0059 755.517 79.9847 758.54C75.9635 761.563 73.011 766.339 71.3224 773.202C69.4146 780.957 65.9092 786.993 60.6112 790.976C60.3758 791.153 60.1374 791.325 59.8961 791.493L220.42 884.172L78.4906 1130H77.5211L0 1085.24ZM1440 679.007V1012.99C1429.64 1014.97 1418.94 1016 1408 1016C1314.11 1016 1238 939.888 1238 846C1238 752.112 1314.11 676 1408 676C1418.94 676 1429.64 677.033 1440 679.007ZM1440 312.184V318.529C1435.61 320.343 1430.54 321.029 1424.88 320.69C1417.83 320.266 1412.39 321.669 1408.31 324.613C1404.23 327.556 1401.19 332.273 1399.36 339.103C1397.3 346.818 1393.68 352.785 1388.31 356.663C1382.93 360.541 1376.13 362.098 1368.16 361.62C1361.1 361.196 1355.66 362.599 1351.58 365.543C1347.5 368.486 1344.46 373.203 1342.64 380.033C1340.58 387.748 1336.95 393.715 1331.58 397.593C1326.2 401.471 1319.4 403.028 1311.43 402.55C1304.37 402.126 1298.94 403.529 1294.86 406.473C1290.78 409.416 1287.73 414.133 1285.91 420.963C1283.85 428.678 1280.23 434.645 1274.85 438.523C1269.48 442.401 1262.67 443.958 1254.7 443.48C1247.65 443.056 1242.21 444.459 1238.13 447.403C1234.05 450.346 1231 455.063 1229.18 461.893C1227.12 469.608 1223.5 475.575 1218.12 479.453C1212.75 483.331 1205.94 484.888 1197.97 484.41C1190.92 483.987 1185.48 485.389 1181.4 488.333C1177.32 491.276 1174.28 495.993 1172.45 502.823C1170.39 510.538 1166.77 516.505 1161.4 520.383C1156.02 524.261 1149.22 525.818 1141.25 525.34C1134.19 524.917 1128.75 526.319 1124.67 529.263C1120.59 532.207 1117.55 536.924 1115.73 543.753C1113.67 551.469 1110.04 557.435 1104.67 561.313C1099.29 565.191 1092.49 566.748 1084.52 566.27C1077.46 565.847 1072.03 567.25 1067.95 570.193C1063.87 573.137 1060.82 577.854 1059 584.683L1053.55 583.119C1055.61 575.404 1059.23 569.437 1064.6 565.559C1069.98 561.681 1076.78 560.124 1084.75 560.602C1091.81 561.025 1097.25 559.623 1101.33 556.679C1105.41 553.735 1108.45 549.018 1110.27 542.189C1112.33 534.474 1115.96 528.507 1121.33 524.629C1126.71 520.751 1133.51 519.194 1141.48 519.672C1148.54 520.095 1153.97 518.693 1158.05 515.749C1162.13 512.805 1165.18 508.088 1167 501.259C1169.06 493.543 1172.68 487.577 1178.06 483.699C1183.43 479.821 1190.24 478.264 1198.21 478.742C1205.26 479.165 1210.7 477.762 1214.78 474.819C1218.86 471.875 1221.91 467.158 1223.73 460.329C1225.79 452.613 1229.41 446.647 1234.79 442.769C1240.16 438.891 1246.96 437.334 1254.94 437.812C1261.99 438.235 1267.43 436.832 1271.51 433.889C1275.59 430.945 1278.63 426.228 1280.46 419.399C1282.51 411.683 1286.14 405.717 1291.51 401.839C1296.89 397.961 1303.69 396.404 1311.66 396.882C1318.72 397.305 1324.16 395.902 1328.23 392.959C1332.31 390.015 1335.36 385.298 1337.18 378.469C1339.24 370.753 1342.86 364.787 1348.24 360.909C1353.61 357.031 1360.42 355.474 1368.39 355.952C1375.45 356.375 1380.88 354.972 1384.96 352.029C1389.04 349.085 1392.09 344.368 1393.91 337.539C1395.97 329.823 1399.59 323.857 1404.97 319.979C1410.34 316.101 1417.15 314.544 1425.12 315.022C1431.24 315.389 1436.14 314.381 1440 312.184ZM1440 258.483V270.218C1439.67 271.155 1439.37 272.14 1439.09 273.173C1437.03 280.888 1433.41 286.855 1428.03 290.733C1422.66 294.611 1415.85 296.168 1407.88 295.69C1400.83 295.266 1395.39 296.669 1391.31 299.613C1387.23 302.556 1384.19 307.273 1382.36 314.103C1380.3 321.818 1376.68 327.785 1371.31 331.663C1365.93 335.541 1359.13 337.098 1351.16 336.62C1344.1 336.196 1338.66 337.599 1334.58 340.543C1330.5 343.486 1327.46 348.203 1325.64 355.033C1323.58 362.748 1319.95 368.715 1314.58 372.593C1309.2 376.471 1302.4 378.028 1294.43 377.55C1287.37 377.126 1281.94 378.529 1277.86 381.473C1273.78 384.416 1270.73 389.133 1268.91 395.963C1266.85 403.678 1263.23 409.645 1257.85 413.523C1252.48 417.401 1245.67 418.958 1237.7 418.48C1230.65 418.056 1225.21 419.459 1221.13 422.403C1217.05 425.346 1214 430.063 1212.18 436.893C1210.12 444.608 1206.5 450.575 1201.12 454.453C1195.75 458.331 1188.94 459.888 1180.97 459.41C1173.92 458.987 1168.48 460.389 1164.4 463.333C1160.32 466.276 1157.28 470.993 1155.45 477.823C1153.39 485.538 1149.77 491.505 1144.4 495.383C1139.02 499.261 1132.22 500.818 1124.25 500.34C1117.19 499.917 1111.75 501.319 1107.67 504.263C1103.59 507.207 1100.55 511.924 1098.73 518.753C1096.67 526.469 1093.04 532.435 1087.67 536.313C1082.29 540.191 1075.49 541.748 1067.52 541.27C1060.46 540.847 1055.03 542.25 1050.95 545.193C1046.87 548.137 1043.82 552.854 1042 559.683L1036.55 558.119C1038.61 550.404 1042.23 544.437 1047.6 540.559C1052.98 536.681 1059.78 535.124 1067.75 535.602C1074.81 536.025 1080.25 534.623 1084.33 531.679C1088.41 528.735 1091.45 524.018 1093.27 517.189C1095.33 509.473 1098.96 503.507 1104.33 499.629C1109.71 495.751 1116.51 494.194 1124.48 494.672C1131.54 495.095 1136.97 493.693 1141.05 490.749C1145.13 487.805 1148.18 483.088 1150 476.259C1152.06 468.543 1155.68 462.577 1161.06 458.699C1166.43 454.821 1173.24 453.264 1181.21 453.742C1188.26 454.165 1193.7 452.762 1197.78 449.819C1201.86 446.875 1204.91 442.158 1206.73 435.329C1208.79 427.613 1212.41 421.647 1217.79 417.769C1223.16 413.891 1229.96 412.334 1237.94 412.812C1244.99 413.235 1250.43 411.832 1254.51 408.889C1258.59 405.945 1261.63 401.228 1263.46 394.399C1265.51 386.683 1269.14 380.717 1274.51 376.839C1279.89 372.961 1286.69 371.404 1294.66 371.882C1301.72 372.305 1307.16 370.902 1311.23 367.959C1315.31 365.015 1318.36 360.298 1320.18 353.469C1322.24 345.753 1325.86 339.787 1331.24 335.909C1336.61 332.031 1343.42 330.474 1351.39 330.952C1358.45 331.375 1363.88 329.972 1367.96 327.029C1372.04 324.085 1375.09 319.368 1376.91 312.539C1378.97 304.823 1382.59 298.857 1387.97 294.979C1393.34 291.101 1400.15 289.544 1408.12 290.022C1415.17 290.445 1420.61 289.042 1424.69 286.099C1428.77 283.155 1431.81 278.438 1433.64 271.609C1435.03 266.402 1437.13 261.992 1440 258.483ZM1258.63 30L1186 155.791L1311.79 228.416L1384.42 102.625L1258.63 30Z" fill="white" fill-opacity="0.3"/>
</svg>
