<svg xmlns="http://www.w3.org/2000/svg" width="1440" height="1130" fill="none" viewBox="0 0 1440 1130"><path fill="#fff" fill-opacity=".4" fill-rule="evenodd" d="M0 497.713V1.28713C8.38425 0.436003 16.8912 0 25.5 0C163.295 0 275 111.705 275 249.5C275 387.295 163.295 499 25.5 499C16.8912 499 8.38425 498.564 0 497.713ZM0 1085.24V756.912L220.42 884.172L78.4906 1130H77.5211L0 1085.24ZM1440 679.007V1012.99C1429.64 1014.97 1418.94 1016 1408 1016C1314.11 1016 1238 939.888 1238 846C1238 752.112 1314.11 676 1408 676C1418.94 676 1429.64 677.033 1440 679.007ZM1258.63 30L1186 155.791L1311.79 228.416L1384.42 102.625L1258.63 30Z" clip-rule="evenodd"/></svg>