<svg width="286" height="10" viewBox="0 0 286 10" fill="none" xmlns="http://www.w3.org/2000/svg">
<path d="M23 5.5C27.1583 2.16667 31.3167 2.16667 35.475 5.5C39.6333 8.83333 43.7917 8.83333 47.95 5.5C52.1083 2.16667 56.2667 2.16667 60.425 5.5C64.5833 8.83333 68.7417 8.83333 72.9 5.5C77.0583 2.16667 81.2167 2.16667 85.375 5.5C89.5333 8.83333 93.6917 8.83333 97.85 5.5C102.008 2.16667 106.167 2.16667 110.325 5.5C114.483 8.83333 118.642 8.83333 122.8 5.5C126.958 2.16667 131.117 2.16667 135.275 5.5C139.433 8.83333 143.592 8.83333 147.75 5.5C151.908 2.16667 156.067 2.16667 160.225 5.5C164.383 8.83333 168.542 8.83333 172.7 5.5C176.858 2.16667 181.017 2.16667 185.175 5.5C189.333 8.83333 193.492 8.83333 197.65 5.5C201.808 2.16667 205.967 2.16667 210.125 5.5C214.283 8.83333 218.442 8.83333 222.6 5.5C226.758 2.16667 230.917 2.16667 235.075 5.5C239.233 8.83333 243.392 8.83333 247.55 5.5C251.708 2.16667 255.867 2.16667 260.025 5.5C264.183 8.83333 268.342 8.83333 272.5 5.5C276.658 2.16667 280.817 2.16667 284.975 5.5" stroke="#C4C4C4" stroke-width="2"/>
<circle cx="5" cy="5" r="5" fill="#C4C4C4"/>
</svg>
